<svg xmlns="http://www.w3.org/2000/svg" viewBox="0 0 217.61 76.34"><defs><style>.cls-1{fill:#db8a74;stroke:#db8a74;stroke-miterlimit:10;stroke-width:4px;}</style></defs><title>Recurso 2</title><g id="Capa_2" data-name="Capa 2"><g id="Capa_1-2" data-name="Capa 1"><path class="cls-1" d="M49.23,56.83Q51,56.83,51,59c0,1.49-1.65,3.6-4.94,6.36a39.08,39.08,0,0,1-11.39,6.57,33.79,33.79,0,0,1-11.85,2.45,22.32,22.32,0,0,1-14.32-5.2Q2,63.94,2,54.08q0-18,15.48-35T47.32,2a11.44,11.44,0,0,1,8.6,3.31A10.71,10.71,0,0,1,59.14,13a34.92,34.92,0,0,1-.46,6.44,6.33,6.33,0,0,1-2.83,4,7.44,7.44,0,0,1-3.77,1.62,2.25,2.25,0,0,1-1.78-.89,3.6,3.6,0,0,1-.76-2.4,25,25,0,0,1,.76-4.26,23.26,23.26,0,0,0,.75-4.76c0-3-1.31-4.53-3.95-4.53q-6.14,0-15.17,7A61.76,61.76,0,0,0,16.57,33.13q-6.3,10.82-6.31,19.92a14.52,14.52,0,0,0,3.63,10.11q3.62,4,10.33,4a29.32,29.32,0,0,0,9.39-1.93,41.05,41.05,0,0,0,10.16-5.18Q48.39,56.83,49.23,56.83Z"/><path class="cls-1" d="M81.4,60.83a31.51,31.51,0,0,1-7.17,7.3,11.74,11.74,0,0,1-6.49,2.43,4.4,4.4,0,0,1-3.44-1.68,6.36,6.36,0,0,1-1.45-4.32q0-6.81,6.08-14.66T81,42c1.44,0,2.52.83,3.23,2.49a1.11,1.11,0,0,0,1.06.82c1.38,0,2.07.54,2.07,1.61a13.18,13.18,0,0,1-.26,2.2,69.85,69.85,0,0,0-1.39,10.76q0,6.27,2.38,7.51A1.79,1.79,0,0,1,89.24,69a2.17,2.17,0,0,1-1.11,1.61,3.63,3.63,0,0,1-2.15.82c-1.32,0-2.42-.92-3.28-2.74A18.72,18.72,0,0,1,81.4,60.83ZM79.82,46.26q-3.41,0-7.94,6.41T67.35,63.29c0,2,.66,3,2,3q2.85,0,7.89-5.74T82.26,50Q82.26,46.26,79.82,46.26Z"/><path class="cls-1" d="M100.29,60c.18-.31.38-.75.63-1.3a46.43,46.43,0,0,1,3.23-6.33A42.76,42.76,0,0,1,107.4,48a20.15,20.15,0,0,1,3.23-3.18,10.65,10.65,0,0,1,2.66-1.52,6.9,6.9,0,0,1,2.3-.43,5.12,5.12,0,0,1,3.67,1.36,4.27,4.27,0,0,1,1.43,3.17,2.27,2.27,0,0,1-.51,1.45,1.83,1.83,0,0,1-1.54.65,2.7,2.7,0,0,1-2-1,2.72,2.72,0,0,0-1.94-1q-2.68,0-7.45,6.53a30.75,30.75,0,0,0-5.8,14.36,4.37,4.37,0,0,1-1,2.66,3,3,0,0,1-2,.65c-.84,0-1.46-.63-1.84-1.89A24.66,24.66,0,0,1,96,63.5c0-.81,0-2.6.13-5.36a66.58,66.58,0,0,1,.63-7.89c0-.33.13-1.1.25-2.31a13.13,13.13,0,0,1,.46-2.77,3.33,3.33,0,0,1,1.11-1.45,2.91,2.91,0,0,1,1.82-.67,1.71,1.71,0,0,1,1.44.61,2.06,2.06,0,0,1,.48,1.31,11.1,11.1,0,0,1-.52,2.84,23.52,23.52,0,0,0-.7,2.82,14.18,14.18,0,0,1-.28,1.84,48.62,48.62,0,0,0-.52,5.85l0,1Z"/><path class="cls-1" d="M128.35,55.52a32.65,32.65,0,0,1,7.92-9.76q4.6-3.75,8.3-3.74A4.22,4.22,0,0,1,148,43.91a7.41,7.41,0,0,1,1.42,4.6q0,8.06-6.06,15.1t-12.83,7a6.09,6.09,0,0,1-3.37-1,3.44,3.44,0,0,1-1.72-2.5,2.87,2.87,0,0,0-.7-1.81A3.32,3.32,0,0,1,123.66,63,78.62,78.62,0,0,1,125,52.91l2.66-15.47a90.46,90.46,0,0,1,2-9.63A5.35,5.35,0,0,1,131,25.35a3,3,0,0,1,1.91-.62c1.21,0,1.82,1,1.82,3.13a26,26,0,0,1-2,8.33Q130.87,41.35,128.35,55.52Zm-.62,8.62c.89,1.68,2,2.51,3.26,2.51a10.59,10.59,0,0,0,6.23-2.44,20.38,20.38,0,0,0,5.68-6.89c1.6-3,2.4-5.45,2.4-7.49a5.29,5.29,0,0,0-.49-2.35c-.33-.66-.75-1-1.25-1q-3.59,0-8.78,5.89A33.32,33.32,0,0,0,127.73,64.14Z"/><path class="cls-1" d="M162,71.54a7.33,7.33,0,0,1-5.85-2.69,9.84,9.84,0,0,1-2.31-6.65A22.94,22.94,0,0,1,158.35,49q4.5-6.48,10.76-6.48a8.23,8.23,0,0,1,6.71,3.18,11.67,11.67,0,0,1,2.58,7.59q0,6.72-5.32,12.47T162,71.54Zm-3.6-10a7.54,7.54,0,0,0,1.1,4.27,3.36,3.36,0,0,0,2.91,1.66c2.57,0,5.15-1.42,7.74-4.24a13.57,13.57,0,0,0,3.88-9.4,8.39,8.39,0,0,0-1.49-5.17,4.74,4.74,0,0,0-4-2q-4.17,0-7.15,5.12A19.27,19.27,0,0,0,158.42,61.53Z"/><path class="cls-1" d="M202.05,50.35a4.34,4.34,0,0,0-2.94,1.76A46.77,46.77,0,0,0,194.26,60q-4.29,8.23-5.55,9.37a3.53,3.53,0,0,1-2.08,1.14q-3.06,0-3.06-3A20.89,20.89,0,0,1,184,64a91.88,91.88,0,0,0,1.42-16.49,3.93,3.93,0,0,1,.84-2.18c.56-.8,1.09-1.21,1.59-1.21a2.17,2.17,0,0,1,1.92.83,6.55,6.55,0,0,1,.57,3.34,73.78,73.78,0,0,1-1.56,10.77,25.46,25.46,0,0,0-.51,3.41c0,.28.07.42.2.42s1.46-2.07,3.6-6.19a40.67,40.67,0,0,1,5.67-8.85,7.28,7.28,0,0,1,5.36-2.56,4.45,4.45,0,0,1,3.79,2.12c1,1.42,1.68,4,2.13,7.74a46.93,46.93,0,0,0,1.31,8c.39,1,1,1.56,1.85,1.56a5,5,0,0,0,2-.57.76.76,0,0,1,.31-.1q1.11,0,1.11,1.29a3.44,3.44,0,0,1-1.52,2.42A5.52,5.52,0,0,1,210.41,69a3.88,3.88,0,0,1-3.4-1.74c-.81-1.17-1.44-4.28-1.91-9.33S203.6,50.35,202.05,50.35Z"/></g></g></svg>