<svg xmlns="http://www.w3.org/2000/svg" viewBox="0 0 165.28 165.28">
    <defs>
        <style>.cls-1,.cls-2{fill:none;stroke-miterlimit:10;stroke-width:3px;}.cls-1{stroke:#cde7e7;}.cls-2{stroke:#074855;}.cls-3{fill:#074855;}</style>
    </defs>
    <title>Recurso 2</title>
    <g id="Capa_2" data-name="Capa 2">
        <g id="Capa_1-2" data-name="Capa 1">
            <path class="cls-1"
                  d="M107.65,9.29h-50a13,13,0,0,0-9.16,3.79L13.08,48.46a13,13,0,0,0-3.79,9.16v50a13,13,0,0,0,3.79,9.16l35.38,35.38A13,13,0,0,0,57.62,156h50a12.94,12.94,0,0,0,9.16-3.79l35.38-35.38a12.94,12.94,0,0,0,3.79-9.16v-50a13,13,0,0,0-3.79-9.16L116.81,13.08A13,13,0,0,0,107.65,9.29Z"/>
            <path class="cls-2"
                  d="M162.76,78.59l-18.5-47.33a14.77,14.77,0,0,0-7.83-8.14L89.88,2.74a14.77,14.77,0,0,0-11.29-.23L31.26,21a14.74,14.74,0,0,0-8.14,7.83L2.74,75.39a14.8,14.8,0,0,0-.23,11.3L21,134a14.73,14.73,0,0,0,7.83,8.15l46.54,20.38a14.75,14.75,0,0,0,11.3.22L134,144.26a14.76,14.76,0,0,0,8.15-7.83l20.38-46.55A14.73,14.73,0,0,0,162.76,78.59Z"/>
            <path class="cls-3"
                  d="M43,88.88a9.83,9.83,0,0,1-4.09.74c-4.37,0-7.66-2.76-7.66-7.84a7.71,7.71,0,0,1,8.1-8.14,8.26,8.26,0,0,1,3.68.69L42.53,76a7.19,7.19,0,0,0-3.12-.64c-3.64,0-6,2.32-6,6.39,0,3.79,2.18,6.23,6,6.23a8,8,0,0,0,3.26-.64Z"/>
            <path class="cls-3"
                  d="M51.62,84.51,50,89.39H47.94l5.27-15.5h2.41l5.29,15.5H58.77l-1.65-4.88ZM56.7,83l-1.51-4.46c-.35-1-.58-1.93-.81-2.83h-.05c-.23.92-.48,1.86-.78,2.81L52,83Z"/>
            <path class="cls-3"
                  d="M66.71,74.1a20.5,20.5,0,0,1,3.84-.33c2.14,0,3.52.4,4.48,1.27A3.83,3.83,0,0,1,76.25,78a4.06,4.06,0,0,1-2.92,4V82c1.2.41,1.91,1.51,2.28,3.12a24.41,24.41,0,0,0,1.19,4.26H74.74a19.67,19.67,0,0,1-1-3.7c-.46-2.14-1.29-3-3.1-3H68.71v6.72h-2Zm2,7.06h2.05c2.14,0,3.49-1.18,3.49-3,0-2-1.45-2.87-3.56-2.89a8.39,8.39,0,0,0-2,.18Z"/>
            <path class="cls-3"
                  d="M82.6,74.1a18.93,18.93,0,0,1,3.66-.33,6.39,6.39,0,0,1,4.25,1.13,3.25,3.25,0,0,1,1.29,2.74A3.68,3.68,0,0,1,89.18,81v0A4,4,0,0,1,92.38,85a4.19,4.19,0,0,1-1.31,3.11c-1.09,1-2.83,1.45-5.36,1.45a23.64,23.64,0,0,1-3.11-.19Zm2,6.34h1.82c2.12,0,3.36-1.1,3.36-2.6,0-1.81-1.38-2.52-3.41-2.52a8.75,8.75,0,0,0-1.77.13Zm0,7.43a10.64,10.64,0,0,0,1.68.09c2.07,0,4-.76,4-3s-1.82-3-4-3H84.6Z"/>
            <path class="cls-3"
                  d="M111.83,81.48c0,5.33-3.24,8.16-7.19,8.16s-7-3.17-7-7.86c0-4.92,3.06-8.14,7.2-8.14S111.83,76.88,111.83,81.48Zm-12,.25c0,3.31,1.79,6.28,4.94,6.28s5-2.92,5-6.44c0-3.08-1.61-6.3-5-6.3S99.81,78.33,99.81,81.73Z"/>
            <path class="cls-3"
                  d="M118,89.39V73.89h2.19l5,7.84a44.65,44.65,0,0,1,2.79,5l0,0c-.18-2.07-.23-3.95-.23-6.37V73.89h1.89v15.5h-2l-4.93-7.87a48.27,48.27,0,0,1-2.89-5.17l-.07,0c.11,2,.16,3.82.16,6.4v6.62Z"/>
        </g>
    </g>
</svg>